<svg id="svg" version="1.1" xmlns="http://www.w3.org/2000/svg" style="display: block;" viewBox="0 0 512 512"><path d="M0 0 C168.96 0 337.92 0 512 0 C512 168.96 512 337.92 512 512 C343.04 512 174.08 512 0 512 C0 343.04 0 174.08 0 0 Z " transform="translate(0,0)" style="fill: #709955;"/><path d="M0 0 C168.96 0 337.92 0 512 0 C512 168.96 512 337.92 512 512 C343.04 512 174.08 512 0 512 C0 343.04 0 174.08 0 0 Z M211 6 C210.00919434 6.20399414 209.01838867 6.40798828 207.99755859 6.61816406 C167.59111999 15.16077779 130.15546952 31.96016597 98 58 C97.45553223 58.44005371 96.91106445 58.88010742 96.35009766 59.33349609 C82.31755755 70.7796946 68.91876485 83.51633991 58 98 C57.58621094 98.53737793 57.17242187 99.07475586 56.74609375 99.62841797 C49.05923411 109.6263779 42.31386855 120.08811847 36 131 C35.60570801 131.67724121 35.21141602 132.35448242 34.80517578 133.05224609 C19.46541864 159.72183665 10.41815988 189.66043274 6 220 C5.82428467 221.19375244 5.82428467 221.19375244 5.64501953 222.41162109 C-3.39874774 287.08866699 14.91337544 354.67649915 53.8125 406.80078125 C59.02043742 413.63763708 64.62569932 420.05133572 70.50390625 426.31640625 C72.63059822 428.60284973 74.67072561 430.92987084 76.6875 433.3125 C79.45157049 436.48534148 82.38873931 439.25837459 85.6015625 441.97265625 C87.43318827 443.52088716 89.23292949 445.08900928 91.0234375 446.68359375 C141.6690879 491.48094806 208.6161877 511.57602866 275.58300781 507.79785156 C330.35532968 503.65908188 381.78904369 482.21216612 423 446 C423.67675781 445.43410156 424.35351562 444.86820312 425.05078125 444.28515625 C436.07468996 435.00807675 446.24623461 424.42596745 455 413 C455.92949987 411.8227685 456.85920027 410.6456953 457.7890625 409.46875 C488.6660135 369.89456398 508.79612768 318.45629056 509.23828125 267.9453125 C509.2480751 267.01395981 509.25786896 266.08260712 509.26795959 265.12303162 C509.51060835 236.05727439 507.53988267 208.96787063 499 181 C498.71672852 180.06913574 498.43345703 179.13827148 498.14160156 178.17919922 C487.53299507 144.09685294 469.63594886 112.38776131 445.17578125 86.328125 C443.30936534 84.33102646 441.55703637 82.28977674 439.8125 80.1875 C403.91931884 39.19062641 349.06499659 13.27961545 296 5 C294.8457251 4.81526123 293.6914502 4.63052246 292.50219727 4.44018555 C280.82067469 2.76245267 269.22393806 2.64281231 257.4375 2.6875 C255.90689438 2.69073273 255.90689438 2.69073273 254.34536743 2.69403076 C239.72024509 2.7436585 225.36400862 2.98250933 211 6 Z " transform="translate(0,0)" style="fill: #000000;"/><path d="M0 0 C1.01316284 0.00100708 2.02632568 0.00201416 3.07019043 0.00305176 C6.81633656 0.00824169 10.56246642 0.0222026 14.30859375 0.03515625 C22.70296875 0.05578125 31.09734375 0.07640625 39.74609375 0.09765625 C39.74609375 18.24765625 39.74609375 36.39765625 39.74609375 55.09765625 C35.02296875 55.20078125 30.29984375 55.30390625 25.43359375 55.41015625 C1.02573131 55.13868826 1.02573131 55.13868826 -20.25390625 65.09765625 C-29.36430262 75.83071979 -31.56264845 88.58353478 -31.53237915 102.26603699 C-31.53817155 103.22690336 -31.54396395 104.18776973 -31.54993188 105.17775327 C-31.56679441 108.36357306 -31.56979645 111.54924679 -31.57275391 114.73510742 C-31.58206158 117.03227081 -31.59223149 119.32943084 -31.60319519 121.62658691 C-31.63041454 127.83854022 -31.64562068 134.05047095 -31.65862322 140.2624681 C-31.6742891 146.7634093 -31.70106828 153.26430465 -31.72665405 159.76521301 C-31.768077 170.6687384 -31.80268864 181.57226574 -31.83203125 192.47583008 C-31.86226017 203.70175992 -31.89663024 214.92766462 -31.93652344 226.15356445 C-31.94021576 227.19318447 -31.94021576 227.19318447 -31.94398268 228.25380691 C-31.95635812 231.73111878 -31.96881449 235.20843035 -31.98131108 238.68574178 C-32.08472075 267.48968062 -32.17236014 296.29364644 -32.25390625 325.09765625 C-50.07390625 325.09765625 -67.89390625 325.09765625 -86.25390625 325.09765625 C-86.29803412 292.81642184 -86.33494824 260.5352168 -86.35603691 228.25396128 C-86.35853819 224.43900148 -86.36112685 220.62404174 -86.36376953 216.80908203 C-86.36429415 216.04962299 -86.36481877 215.29016395 -86.36535929 214.507691 C-86.37405132 202.22615427 -86.38981464 189.94463635 -86.40821184 177.66311076 C-86.42694439 165.0521156 -86.43803006 152.44113026 -86.44208324 139.83012176 C-86.44482135 132.0544968 -86.45345549 124.27892501 -86.46973918 116.50331643 C-86.48160531 110.53130573 -86.48280914 104.55934034 -86.48012161 98.58731651 C-86.48067033 96.14449169 -86.48462854 93.70166479 -86.4923172 91.25885201 C-86.50232868 87.91299409 -86.49985252 84.56736014 -86.49441528 81.22149658 C-86.50024097 80.26425886 -86.50606665 79.30702115 -86.51206887 78.32077622 C-86.42282483 57.87810255 -80.29300291 36.30455572 -65.78125 21.37109375 C-47.27610986 4.72504806 -24.41361844 -0.11599871 0 0 Z " transform="translate(239.25390625,83.90234375)" style="fill: #FEFEFE;"/><path d="M0 0 C3.3 0 6.6 0 10 0 C10 5.28 10 10.56 10 16 C29.8 16 49.6 16 70 16 C70 45 70 45 69 46 C67.15881971 46.09381302 65.31402359 46.11743954 63.47045898 46.11352539 C62.28931015 46.11344986 61.10816132 46.11337433 59.89122009 46.11329651 C58.6058284 46.10813522 57.32043671 46.10297394 55.99609375 46.09765625 C54.0338662 46.09553383 54.0338662 46.09553383 52.03199768 46.09336853 C48.54837141 46.0895441 45.06478661 46.07971446 41.58117676 46.06866455 C38.02873302 46.05844882 34.47628241 46.05381586 30.92382812 46.04882812 C23.94918209 46.03862232 16.97465003 46.01905064 10 46 C10 64.15 10 82.3 10 101 C17.92 101 25.84 101 34 101 C46.27660654 103.705015 56.614984 108.511706 64 119 C67.42983227 124.75124314 69.10182878 129.68071171 69.19287109 136.40429688 C69.20893402 137.48642456 69.22499695 138.56855225 69.24154663 139.68347168 C69.28630419 144.64509288 69.32709193 149.60658298 69.35009766 154.56835938 C69.36660908 157.17522133 69.39383457 159.78203891 69.43212891 162.38867188 C69.48727706 166.16560131 69.50883445 169.94147052 69.5234375 173.71875 C69.54610687 174.869198 69.56877625 176.019646 69.59213257 177.20495605 C69.56402531 188.12566811 66.41495054 197.41072115 58.7265625 205.328125 C58.15679687 205.87984375 57.58703125 206.4315625 57 207 C56.154375 207.886875 55.30875 208.77375 54.4375 209.6875 C41.45651201 219.47316787 25.31577047 217.49726528 10 217 C10 224.26 10 231.52 10 239 C6.7 239 3.4 239 0 239 C0 232.07 0 225.14 0 218 C-19.8 218 -39.6 218 -60 218 C-60 208.1 -60 198.2 -60 188 C-40.2 188 -20.4 188 0 188 C0 168.86 0 149.72 0 130 C-9.24 130 -18.48 130 -28 130 C-40.54554928 125.17478874 -51.12803066 120.47564826 -57 108 C-59.68732642 100.79048955 -60.4672097 94.20021806 -60.46875 86.54296875 C-60.47636353 85.47814774 -60.48397705 84.41332672 -60.49182129 83.3162384 C-60.50256384 81.07665332 -60.50549939 78.83701839 -60.50097656 76.59741211 C-60.50000548 73.20665224 -60.54167276 69.81816792 -60.5859375 66.42773438 C-60.66289357 52.43061716 -60.10862129 40.08029582 -50.7890625 28.77734375 C-40.28399386 18.34108561 -28.49692828 15.86675082 -14.20898438 15.91210938 C-12.65147461 15.92467773 -12.65147461 15.92467773 -11.0625 15.9375 C-9.46438477 15.94426758 -9.46438477 15.94426758 -7.83398438 15.95117188 C-5.22263178 15.96288198 -2.61130837 15.98081488 0 16 C0 10.72 0 5.44 0 0 Z " transform="translate(300,189)" style="fill: #FDFDFC;"/><path d="M0 0 C0 18.48 0 36.96 0 56 C-18.69230769 56 -18.69230769 56 -24.6875 52.375 C-31.87816872 44.98998888 -31.61759894 37.17491166 -31.5 27.375 C-31.51546875 26.07820313 -31.5309375 24.78140625 -31.546875 23.4453125 C-31.51142186 14.83020047 -30.84721805 10.96037152 -24.875 4.8125 C-16.8636959 -0.23810476 -9.60800351 0 0 0 Z " transform="translate(300,234)" style="fill: #729A58;"/><path d="M0 0 C18.25242718 0 18.25242718 0 24 4 C30.50273025 10.66946693 30.37274043 16.6957688 30.37060547 25.6796875 C30.3749576 27.73002538 30.41123836 29.77817062 30.44921875 31.828125 C30.47143637 39.35249182 30.21611754 44.67195569 26 51 C18.10800438 58.68963676 11.57979375 57 0 57 C0 38.19 0 19.38 0 0 Z " transform="translate(310,320)" style="fill: #709955;"/></svg>