<svg id="svg" version="1.1" xmlns="http://www.w3.org/2000/svg" style="display: block;" viewBox="0 0 64 64"><path d="M0 0 C21.12 0 42.24 0 64 0 C64 21.12 64 42.24 64 64 C42.88 64 21.76 64 0 64 C0 42.88 0 21.76 0 0 Z " transform="translate(0,0)" style="fill: #532163;"/><path d="M0 0 C0.91007812 0.00902344 1.82015625 0.01804687 2.7578125 0.02734375 C3.45648438 0.03894531 4.15515625 0.05054688 4.875 0.0625 C4.875 2.3725 4.875 4.6825 4.875 7.0625 C3.1734375 7.2790625 3.1734375 7.2790625 1.4375 7.5 C-1.93277201 7.67421478 -1.93277201 7.67421478 -3.125 9.0625 C-3.28358842 11.20636657 -3.37629298 13.35516838 -3.44140625 15.50390625 C-3.48330078 16.80908203 -3.52519531 18.11425781 -3.56835938 19.45898438 C-3.60817608 20.8476533 -3.64788825 22.23632522 -3.6875 23.625 C-3.73067989 25.01759183 -3.774294 26.41017028 -3.81835938 27.80273438 C-3.92485876 31.22254801 -4.02686923 34.64243763 -4.125 38.0625 C-6.765 38.0625 -9.405 38.0625 -12.125 38.0625 C-12.24897147 33.59685699 -12.33950992 29.13213561 -12.3996582 24.6652832 C-12.42474109 23.14720199 -12.4588166 21.62924082 -12.50219727 20.11157227 C-12.56313293 17.92434035 -12.59126895 15.73870961 -12.61328125 13.55078125 C-12.63946533 12.23634033 -12.66564941 10.92189941 -12.69262695 9.56762695 C-11.98576433 5.20271225 -10.51348016 3.79796356 -7.125 1.0625 C-4.60024538 -0.19987731 -2.81299534 -0.03606404 0 0 Z " transform="translate(38.125,13.9375)" style="fill: #F5F2F6;"/><path d="M0 0 C0.33 0 0.66 0 1 0 C1.17015625 0.65226562 1.3403125 1.30453125 1.515625 1.9765625 C4.21787586 11.72191399 8.93481589 18.92678065 17.86328125 24.07421875 C21.47802803 25.71728547 25.07452533 26.52128358 29 27 C29 27.33 29 27.66 29 28 C19.43 28 9.86 28 0 28 C0 18.76 0 9.52 0 0 Z " transform="translate(0,36)" style="fill: #000000;"/><path d="M0 0 C0.33 0 0.66 0 1 0 C1 8.58 1 17.16 1 26 C-8.24 26 -17.48 26 -27 26 C-27 25.67 -27 25.34 -27 25 C-26.07380859 24.77957031 -26.07380859 24.77957031 -25.12890625 24.5546875 C-15.41065508 21.98090409 -8.47368271 17.95473768 -3.15234375 9.2578125 C-1.59295672 6.20247114 -0.712956 3.35089322 0 0 Z " transform="translate(63,38)" style="fill: #000000;"/><path d="M0 0 C8.58 0 17.16 0 26 0 C22 2 22 2 20.0703125 2.89453125 C10.21686556 7.54425019 6.12614064 12.89297147 2 23 C1.6153485 24.65557607 1.26239024 26.32070245 1 28 C0.67 28 0.34 28 0 28 C0 18.76 0 9.52 0 0 Z " transform="translate(0,0)" style="fill: #000000;"/><path d="M0 0 C8.58 0 17.16 0 26 0 C26 8.58 26 17.16 26 26 C24.95499542 23.90999084 23.91915942 21.81293866 22.9921875 19.66796875 C19.63021384 12.2034468 15.6429038 7.06419338 8.0390625 3.68359375 C5.37758648 2.70178961 2.71962751 1.80488976 0 1 C0 0.67 0 0.34 0 0 Z " transform="translate(38,0)" style="fill: #000000;"/></svg>