<svg id="svg" version="1.1" xmlns="http://www.w3.org/2000/svg" style="display: block;" viewBox="0 0 109 62"><path d="M0 0 C35.97 0 71.94 0 109 0 C109 20.46 109 40.92 109 62 C73.03 62 37.06 62 0 62 C0 41.54 0 21.08 0 0 Z " transform="translate(0,0)" style="fill: #000000;"/><path d="M0 0 C2.47139468 3.01201226 2.60825786 4.73084664 2.3671875 8.53125 C1.86529678 11.13681036 0.94233428 12.64457605 -1 14.4375 C-1.66 14.4375 -2.32 14.4375 -3 14.4375 C-0.36 19.7175 2.28 24.9975 5 30.4375 C3.35 30.4375 1.7 30.4375 0 30.4375 C-2.01953125 27.8828125 -2.01953125 27.8828125 -3.8125 24.5625 C-4.41707031 23.47195312 -5.02164062 22.38140625 -5.64453125 21.2578125 C-7 18.4375 -7 18.4375 -7 16.4375 C-8.65 16.4375 -10.3 16.4375 -12 16.4375 C-12 21.0575 -12 25.6775 -12 30.4375 C-13.65 30.4375 -15.3 30.4375 -17 30.4375 C-17 19.8775 -17 9.3175 -17 -1.5625 C-10.43077059 -2.65737157 -5.93460979 -3.0909426 0 0 Z " transform="translate(21,16.5625)" style="fill: #4C2B61;"/><path d="M0 0 C2.6875 2.125 2.6875 2.125 3.6875 4.125 C3.82165472 6.7973621 3.73068541 9.44750488 3.6875 12.125 C1.06243198 12.15190844 -1.56236173 12.17179404 -4.1875 12.1875 C-4.93386719 12.19587891 -5.68023437 12.20425781 -6.44921875 12.21289062 C-12.0859375 12.23828125 -12.0859375 12.23828125 -14.3125 11.125 C-13.19395414 14.85114153 -13.19395414 14.85114153 -10.3125 17.125 C-8.85670413 17.22055417 -7.3964204 17.25484691 -5.9375 17.25 C-5.16664062 17.25257812 -4.39578125 17.25515625 -3.6015625 17.2578125 C-1.3796811 17.12889788 0.55368508 16.73883717 2.6875 16.125 C3.0175 17.115 3.3475 18.105 3.6875 19.125 C-0.45095235 22.09951263 -4.25488775 23.28367019 -9.3125 23.125 C-12.8112001 21.93676223 -14.71220054 20.7853294 -17.1875 18.0625 C-18.84994902 13.7216609 -18.99152455 9.71218805 -18.3125 5.125 C-16.5027968 1.90774987 -15.13904453 0.58177461 -11.9375 -1.1875 C-7.11720204 -2.44995899 -4.41175382 -2.49721914 0 0 Z " transform="translate(48.3125,24.875)" style="fill: #5A3B6D;"/><path d="M0 0 C2.31 0.33 4.62 0.66 7 1 C7.33 9.91 7.66 18.82 8 28 C11.28976808 29.09658936 12.71303767 28.79953138 16 28 C16 29.32 16 30.64 16 32 C13.27075574 33.8558861 11.80802824 33.99663207 8.4375 33.9375 C5 33 5 33 3.30078125 31.00390625 C1.53017352 26.91502533 1.63564828 23.40254123 1.75 19 C1.75515625 18.2059375 1.7603125 17.411875 1.765625 16.59375 C1.81871576 12.61194301 2.0288429 8.88462841 3 5 C1.35 4.67 -0.3 4.34 -2 4 C-1.34 2.68 -0.68 1.36 0 0 Z " transform="translate(86,14)" style="fill: #9986A4;"/><path d="M0 0 C6.494855 0.61272217 6.494855 0.61272217 8.875 2.4375 C11.43200539 5.98889638 11.10183717 8.7979114 11.0625 13.125 C11.05347656 14.40632813 11.04445313 15.68765625 11.03515625 17.0078125 C11.02355469 17.99523437 11.01195313 18.98265625 11 20 C11.99 20 12.98 20 14 20 C14 21.32 14 22.64 14 24 C10.66666667 24 7.33333333 24 4 24 C3.01 24.185625 2.02 24.37125 1 24.5625 C-2 25 -2 25 -5 24 C-4.67 23.01 -4.34 22.02 -4 21 C-1.71302681 20.08960875 0.58315365 19.54158001 2.96875 18.94140625 C5.20825341 18.1927947 5.20825341 18.1927947 5.78125 15.90234375 C5.8534375 15.27457031 5.925625 14.64679687 6 14 C3.36 14 0.72 14 -2 14 C-2 13.67 -2 13.34 -2 13 C0.64 12.67 3.28 12.34 6 12 C3.03 11.67 0.06 11.34 -3 11 C-3 10.67 -3 10.34 -3 10 C-0.03 10 2.94 10 6 10 C5.67 8.68 5.34 7.36 5 6 C1.01803543 4.94595055 -1.98195309 5.15901344 -6 6 C-6.33 4.68 -6.66 3.36 -7 2 C-6.67 2.66 -6.34 3.32 -6 4 C-2.7 3.67 0.6 3.34 4 3 C4 2.34 4 1.68 4 1 C2.68 0.67 1.36 0.34 0 0 Z " transform="translate(66,23)" style="fill: #7C648A;"/><path d="M0 0 C0.33 0 0.66 0 1 0 C1 10.23 1 20.46 1 31 C1.99 31 2.98 31 4 31 C4 26.38 4 21.76 4 17 C5.65 16.67 7.3 16.34 9 16 C8.01 16 7.02 16 6 16 C7 14 7 14 9.9375 13 C11.4534375 12.505 11.4534375 12.505 13 12 C13.66 11.34 14.32 10.68 15 10 C15 10.66 15 11.32 15 12 C15.99 12 16.98 12 18 12 C17.34 13.32 16.68 14.64 16 16 C15.34 16 14.68 16 14 16 C16.64 21.28 19.28 26.56 22 32 C20.35 32 18.7 32 17 32 C14.98046875 29.4453125 14.98046875 29.4453125 13.1875 26.125 C12.58292969 25.03445312 11.97835938 23.94390625 11.35546875 22.8203125 C10 20 10 20 10 18 C8.35 18 6.7 18 5 18 C5 22.62 5 27.24 5 32 C3.35 32 1.7 32 0 32 C0 21.44 0 10.88 0 0 Z " transform="translate(4,15)" style="fill: #7B638A;"/><path d="M0 0 C0.99386719 0.02707031 1.98773438 0.05414063 3.01171875 0.08203125 C4.15060547 0.13423828 4.15060547 0.13423828 5.3125 0.1875 C5.3125 3.02717231 4.90982819 5.42485711 4.3125 8.1875 C2.87695975 8.69309908 1.4389798 9.1917749 0 9.6875 C-0.80050781 9.9659375 -1.60101563 10.244375 -2.42578125 10.53125 C-4.6875 11.1875 -4.6875 11.1875 -7.6875 11.1875 C-8.6875 10.1875 -8.6875 10.1875 -8.9375 6.8125 C-8.6875 3.1875 -8.6875 3.1875 -7.52734375 1.47265625 C-4.95442212 -0.32456502 -3.10292567 -0.10951502 0 0 Z " transform="translate(66.6875,33.8125)" style="fill: #5A3B6D;"/><path d="M0 0 C3 1 3 1 4 3 C4.13415472 5.6723621 4.04318541 8.32250488 4 11 C1.41659616 11.02703562 -1.16652308 11.04685611 -3.75 11.0625 C-4.47960938 11.07087891 -5.20921875 11.07925781 -5.9609375 11.08789062 C-9.48670558 11.10391684 -12.61034916 10.95292713 -16 10 C-15.42655063 7.13275314 -15.1385485 6.1385485 -13 4 C-13 4.66 -13 5.32 -13 6 C-9.04 6 -5.08 6 -1 6 C-1 4.35 -1 2.7 -1 1 C-0.67 0.67 -0.34 0.34 0 0 Z " transform="translate(48,26)" style="fill: #4D2C63;"/><path d="M0 0 C2.64 0.33 5.28 0.66 8 1 C9.1875 3.75 9.1875 3.75 10 7 C9.0625 9.3125 9.0625 9.3125 7 11 C3.3125 11.75 3.3125 11.75 0 12 C0 8.04 0 4.08 0 0 Z " transform="translate(9,18)" style="fill: #000000;"/><path d="M0 0 C4.27702248 0.28996763 7.18581707 0.57594639 11 2.5625 C13.92110937 6.12260204 13.37624112 8.48510658 13 13 C11.68 13 10.36 13 9 13 C8.5978125 11.2984375 8.5978125 11.2984375 8.1875 9.5625 C7.795625 8.386875 7.40375 7.21125 7 6 C6.01 5.67 5.02 5.34 4 5 C4 4.34 4 3.68 4 3 C2.35 2.67 0.7 2.34 -1 2 C-0.67 1.34 -0.34 0.68 0 0 Z " transform="translate(10,14)" style="fill: #5D4070;"/><path d="M0 0 C0 0.66 0 1.32 0 2 C0.99 2 1.98 2 3 2 C3 2.99 3 3.98 3 5 C0 5 -3 5 -6 5 C-6.99 5.185625 -7.98 5.37125 -9 5.5625 C-12 6 -12 6 -15 5 C-14 2 -14 2 -12.109375 1.015625 C-4.28930818 -1.52201258 -4.28930818 -1.52201258 0 0 Z " transform="translate(76,42)" style="fill: #725982;"/><path d="M0 0 C0.33 0 0.66 0 1 0 C1 9.57 1 19.14 1 29 C0.34 29 -0.32 29 -1 29 C-2.23486637 25.15709587 -2.19121216 21.30678588 -2.1875 17.3125 C-2.18814453 16.60222656 -2.18878906 15.89195313 -2.18945312 15.16015625 C-2.1362442 9.8586128 -1.46176706 5.11618473 0 0 Z " transform="translate(91,16)" style="fill: #3A1752;"/><path d="M0 0 C0.33 0.99 0.66 1.98 1 3 C-3.3536722 6.1292019 -6.75984624 6.66192556 -12 7 C-12.99 6.67 -13.98 6.34 -15 6 C-14.67 4.35 -14.34 2.7 -14 1 C-12.95199219 1.01740234 -12.95199219 1.01740234 -11.8828125 1.03515625 C-10.97273438 1.04417969 -10.06265625 1.05320313 -9.125 1.0625 C-7.76761719 1.07990234 -7.76761719 1.07990234 -6.3828125 1.09765625 C-3.92124681 0.99677241 -2.42285583 0 0 0 Z " transform="translate(51,41)" style="fill: #775E87;"/><path d="M0 0 C3 1 3 1 4 3 C4.13415472 5.6723621 4.04318541 8.32250488 4 11 C-0.29 11 -4.58 11 -9 11 C-9 10.67 -9 10.34 -9 10 C-5.04 10 -1.08 10 3 10 C3 8.35 3 6.7 3 5 C2.34 5 1.68 5 1 5 C1 5.66 1 6.32 1 7 C-3.95 7 -8.9 7 -14 7 C-13.67 6.01 -13.34 5.02 -13 4 C-13 4.66 -13 5.32 -13 6 C-9.04 6 -5.08 6 -1 6 C-1 4.35 -1 2.7 -1 1 C-0.67 0.67 -0.34 0.34 0 0 Z " transform="translate(48,26)" style="fill: #B3A5BB;"/><path d="M0 0 C6.75 0.875 6.75 0.875 9 2 C8.34 4.97 7.68 7.94 7 11 C3.7 11 0.4 11 -3 11 C-3 10.67 -3 10.34 -3 10 C-0.03 10 2.94 10 6 10 C5.67 8.68 5.34 7.36 5 6 C1.01803543 4.94595055 -1.98195309 5.15901344 -6 6 C-6.33 4.68 -6.66 3.36 -7 2 C-6.67 2.66 -6.34 3.32 -6 4 C-2.7 3.67 0.6 3.34 4 3 C4 2.34 4 1.68 4 1 C2.68 0.67 1.36 0.34 0 0 Z " transform="translate(66,23)" style="fill: #9581A1;"/><path d="M0 0 C0.886875 0.185625 1.77375 0.37125 2.6875 0.5625 C5.85178811 0.98042484 7.94839642 0.80777742 11 0 C11 1.32 11 2.64 11 4 C8.08291076 5.98362069 6.87619096 5.9876191 3.25 5.625 C2.1775 5.41875 1.105 5.2125 0 5 C0 3.33333333 0 1.66666667 0 0 Z " transform="translate(91,42)" style="fill: #6A4F7C;"/><path d="M0 0 C2.01822917 0.06510417 4.03645833 0.13020833 6.0546875 0.1953125 C5.1796875 5.0703125 5.1796875 5.0703125 4.0546875 6.1953125 C1.72171317 6.23624187 -0.61236475 6.23772973 -2.9453125 6.1953125 C-3.5703125 4.3203125 -3.5703125 4.3203125 -3.9453125 2.1953125 C-1.9453125 0.1953125 -1.9453125 0.1953125 0 0 Z " transform="translate(65.9453125,36.8046875)" style="fill: #000000;"/><path d="M0 0 C0.33 1.32 0.66 2.64 1 4 C-2.96 4 -6.92 4 -11 4 C-10.67 2.68 -10.34 1.36 -10 0 C-6.30581799 -1.231394 -3.7943739 -0.64432764 0 0 Z " transform="translate(46,28)" style="fill: #000000;"/><path d="M0 0 C2.375 1.5 2.375 1.5 4 3 C2.9375 4.5625 2.9375 4.5625 1 6 C-2.30435606 5.76811536 -5.02141281 5.48929359 -8 4 C-7.67 3.34 -7.34 2.68 -7 2 C-7.66 1.67 -8.32 1.34 -9 1 C-5.70952793 -0.09682402 -3.44927034 -0.28157309 0 0 Z " transform="translate(45,23)" style="fill: #6D517D;"/><path d="M0 0 C1.32 0 2.64 0 4 0 C5.32 2.97 6.64 5.94 8 9 C5.6875 9.3125 5.6875 9.3125 3 9 C0.36439287 5.72821183 0 4.27931853 0 0 Z " transform="translate(18,38)" style="fill: #5D3E6F;"/><path d="M0 0 C0 2.64 0 5.28 0 8 C-1.32 8 -2.64 8 -4 8 C-4.125 5.125 -4.125 5.125 -4 2 C-2 0 -2 0 0 0 Z " transform="translate(23,19)" style="fill: #513166;"/><path d="M0 0 C0.99 0.33 1.98 0.66 3 1 C3 1.66 3 2.32 3 3 C3.99 3 4.98 3 6 3 C6 3.99 6 4.98 6 6 C4.02 6 2.04 6 0 6 C-0.38218767 4.34385343 -0.71395102 2.67542976 -1 1 C-0.67 0.67 -0.34 0.34 0 0 Z " transform="translate(73,41)" style="fill: #4C2A61;"/><path d="M0 0 C2 1.375 2 1.375 4 3 C4 3.66 4 4.32 4 5 C4.99 5.33 5.98 5.66 7 6 C4.125 6.625 4.125 6.625 1 7 C0.34 6.34 -0.32 5.68 -1 5 C-0.625 2.375 -0.625 2.375 0 0 Z " transform="translate(33,39)" style="fill: #503065;"/><path d="M0 0 C0.66 0 1.32 0 2 0 C2 1.32 2 2.64 2 4 C-3.61 4 -9.22 4 -15 4 C-15 3.67 -15 3.34 -15 3 C-10.05 2.67 -5.1 2.34 0 2 C0 1.34 0 0.68 0 0 Z " transform="translate(49,31)" style="fill: #3A1652;"/><path d="M0 0 C-1.04874998 2.62187494 -1.64931313 3.79371361 -4.125 5.25 C-4.74375 5.4975 -5.3625 5.745 -6 6 C-6 0.53767365 -5.46232635 0 0 0 Z " transform="translate(38,25)" style="fill: #513165;"/><path d="M0 0 C0 0.66 0 1.32 0 2 C-3.3 2.33 -6.6 2.66 -10 3 C-10 2.34 -10 1.68 -10 1 C-6.78548731 -0.60725635 -3.56387464 -0.05748185 0 0 Z " transform="translate(70,24)" style="fill: #47245C;"/><path d="M0 0 C2.97 0 5.94 0 9 0 C9.33 0.66 9.66 1.32 10 2 C6.37 2.33 2.74 2.66 -1 3 C-0.67 2.01 -0.34 1.02 0 0 Z " transform="translate(63,34)" style="fill: #38134F;"/><path d="M0 0 C-0.66 1.32 -1.32 2.64 -2 4 C-2.99 4 -3.98 4 -5 4 C-5.33 2.68 -5.66 1.36 -6 0 C-3 -1 -3 -1 0 0 Z " transform="translate(103,43)" style="fill: #7A6289;"/></svg>